<mxfile host="app.diagrams.net" agent="Mozilla/5.0 (Windows NT 10.0; Win64; x64) AppleWebKit/537.36 (KHTML, like Gecko) Chrome/131.0.0.0 Safari/537.36" version="24.8.6">
  <diagram name="Page-1" id="wHnzDf8OpKGsBH9KBf9Y">
    <mxGraphModel dx="1050" dy="625" grid="1" gridSize="10" guides="1" tooltips="1" connect="1" arrows="1" fold="1" page="1" pageScale="1" pageWidth="850" pageHeight="1100" math="0" shadow="0">
      <root>
        <mxCell id="0" />
        <mxCell id="1" parent="0" />
        <mxCell id="RDDA6BBOxE4qUe0INSzU-4" value="" style="edgeStyle=orthogonalEdgeStyle;rounded=0;orthogonalLoop=1;jettySize=auto;html=1;" edge="1" parent="1" source="RDDA6BBOxE4qUe0INSzU-1" target="RDDA6BBOxE4qUe0INSzU-3">
          <mxGeometry relative="1" as="geometry" />
        </mxCell>
        <mxCell id="RDDA6BBOxE4qUe0INSzU-1" value="START" style="ellipse;whiteSpace=wrap;html=1;aspect=fixed;" vertex="1" parent="1">
          <mxGeometry x="385" y="20" width="80" height="80" as="geometry" />
        </mxCell>
        <mxCell id="RDDA6BBOxE4qUe0INSzU-6" value="" style="edgeStyle=orthogonalEdgeStyle;rounded=0;orthogonalLoop=1;jettySize=auto;html=1;" edge="1" parent="1" source="RDDA6BBOxE4qUe0INSzU-3" target="RDDA6BBOxE4qUe0INSzU-5">
          <mxGeometry relative="1" as="geometry" />
        </mxCell>
        <mxCell id="RDDA6BBOxE4qUe0INSzU-3" value="NHẬP 2 SỐ A, B" style="shape=parallelogram;perimeter=parallelogramPerimeter;whiteSpace=wrap;html=1;fixedSize=1;" vertex="1" parent="1">
          <mxGeometry x="365" y="190" width="120" height="60" as="geometry" />
        </mxCell>
        <mxCell id="RDDA6BBOxE4qUe0INSzU-8" value="" style="edgeStyle=orthogonalEdgeStyle;rounded=0;orthogonalLoop=1;jettySize=auto;html=1;" edge="1" parent="1" source="RDDA6BBOxE4qUe0INSzU-5" target="RDDA6BBOxE4qUe0INSzU-7">
          <mxGeometry relative="1" as="geometry" />
        </mxCell>
        <mxCell id="RDDA6BBOxE4qUe0INSzU-5" value="A + B&amp;nbsp;" style="whiteSpace=wrap;html=1;" vertex="1" parent="1">
          <mxGeometry x="365" y="330" width="120" height="60" as="geometry" />
        </mxCell>
        <mxCell id="RDDA6BBOxE4qUe0INSzU-10" value="" style="edgeStyle=orthogonalEdgeStyle;rounded=0;orthogonalLoop=1;jettySize=auto;html=1;" edge="1" parent="1" source="RDDA6BBOxE4qUe0INSzU-7" target="RDDA6BBOxE4qUe0INSzU-9">
          <mxGeometry relative="1" as="geometry" />
        </mxCell>
        <mxCell id="RDDA6BBOxE4qUe0INSzU-7" value="IN TỔNG 2 SỐ" style="shape=parallelogram;perimeter=parallelogramPerimeter;whiteSpace=wrap;html=1;fixedSize=1;" vertex="1" parent="1">
          <mxGeometry x="365" y="470" width="120" height="60" as="geometry" />
        </mxCell>
        <mxCell id="RDDA6BBOxE4qUe0INSzU-9" value="END" style="ellipse;whiteSpace=wrap;html=1;" vertex="1" parent="1">
          <mxGeometry x="385" y="600" width="80" height="80" as="geometry" />
        </mxCell>
      </root>
    </mxGraphModel>
  </diagram>
</mxfile>
